<?xml version="1.0" encoding="utf-8"?>
<!-- Generator: Adobe Illustrator 16.0.0, SVG Export Plug-In . SVG Version: 6.00 Build 0)  -->
<!DOCTYPE svg PUBLIC "-//W3C//DTD SVG 1.1//EN" "http://www.w3.org/Graphics/SVG/1.1/DTD/svg11.dtd">
<svg version="1.1" id="Layer_1" xmlns="http://www.w3.org/2000/svg" xmlns:xlink="http://www.w3.org/1999/xlink" x="0px" y="0px"
	 width="28.35px" height="28.35px" viewBox="0 0 28.35 28.35" enable-background="new 0 0 28.35 28.35" xml:space="preserve">
<path fill-rule="evenodd" clip-rule="evenodd" d="M22.156,24.156h-4h-2h-4h-2h-4h-2v-2v-4v-2v-4v-2v-4v-1v-1h20v1v1v4v2v4v2v4v2
	H22.156z M10.156,6.156h-4v4h4V6.156z M10.156,12.156h-4v4h4V12.156z M10.156,18.156h-4v4h4V18.156z M12.156,22.156h4v-4h-4V22.156z
	 M12.156,16.156h4v-4h-4V16.156z M12.156,10.156h4v-4h-4V10.156z M22.156,6.156h-4v4h4V6.156z M22.156,12.156h-4v4h4V12.156z
	 M22.156,18.156h-4v4h4V18.156z"/>
</svg>
