<?xml version="1.0" encoding="utf-8"?>
<!-- Generator: Adobe Illustrator 16.0.0, SVG Export Plug-In . SVG Version: 6.00 Build 0)  -->
<!DOCTYPE svg PUBLIC "-//W3C//DTD SVG 1.1//EN" "http://www.w3.org/Graphics/SVG/1.1/DTD/svg11.dtd">
<svg version="1.1" id="Layer_1" xmlns="http://www.w3.org/2000/svg" xmlns:xlink="http://www.w3.org/1999/xlink" x="0px" y="0px"
	 width="28.35px" height="28.35px" viewBox="0 0 28.35 28.35" enable-background="new 0 0 28.35 28.35" xml:space="preserve">
<path fill-rule="evenodd" clip-rule="evenodd" d="M20.175,18.157h-5l-3,2.999v-2.999h-4c-1.104,0-2-0.896-2-2V9.156
	c0-1.104,0.896-2,2-2h12c1.104,0,2,0.896,2,2v7.001C22.175,17.261,21.279,18.157,20.175,18.157z M20.175,10.156c0-0.552-0.447-1-1-1
	h-10c-0.552,0-1,0.448-1,1v5c0,0.552,0.448,1.001,1,1.001h10c0.553,0,1-0.449,1-1.001V10.156z"/>
</svg>
