<?xml version="1.0" encoding="utf-8"?><svg xmlns="http://www.w3.org/2000/svg" xmlns:xlink="http://www.w3.org/1999/xlink"><symbol id="arrow" viewBox="0 0 19.8 7.7" xmlns="http://www.w3.org/2000/svg"><style id="astyle3">.ast0{fill:#0e2426}</style><path class="ast0" id="apolygon5" d="M18.8 0L9.9 5.3 1 .3 0 2l9.5 5.3.2.4 10.1-6z"/></symbol><symbol id="arrow-icon" viewBox="0 0 20 20" xmlns="http://www.w3.org/2000/svg"><style>.bst0{fill:#231f20}</style><title>nav_icon</title><path class="bst0" d="M10 13.9L0 7.8l1.1-1.7 8.9 5.5 9-5.5 1 1.7z"/></symbol><symbol viewBox="0 0 28.35 28.35" id="arrow-left" xmlns="http://www.w3.org/2000/svg"><path fill-rule="evenodd" clip-rule="evenodd" d="M8.516 14.156L18.879 3.792l.707.707-9.656 9.657 9.656 9.656-.707.707L8.516 14.156z"/></symbol><symbol viewBox="0 0 28.35 28.35" id="calendar" xmlns="http://www.w3.org/2000/svg"><path fill-rule="evenodd" clip-rule="evenodd" d="M22.156 24.156h-18v-20h20v20h-2zm-12-18h-4v4h4v-4zm0 6h-4v4h4v-4zm0 6h-4v4h4v-4zm2 4h4v-4h-4v4zm0-6h4v-4h-4v4zm0-6h4v-4h-4v4zm10-4h-4v4h4v-4zm0 6h-4v4h4v-4zm0 6h-4v4h4v-4z"/></symbol><symbol viewBox="0 0 28.35 28.35" id="check" xmlns="http://www.w3.org/2000/svg"><path d="M20.856 9.832l-.377-.366a1.09 1.09 0 0 0-1.507 0l-6.631 6.449-2.966-2.888a1.09 1.09 0 0 0-1.506 0l-.376.365a1.018 1.018 0 0 0 0 1.464l4.093 3.987a1.09 1.09 0 0 0 1.506 0l7.764-7.549c.413-.4.413-1.06 0-1.462z"/></symbol><symbol viewBox="0 0 56.69 56.69" id="cloud-sun" xmlns="http://www.w3.org/2000/svg"><path fill-rule="evenodd" clip-rule="evenodd" d="M51.797 22.686l-4.566 1.763c0 .077-.076.077-.229.077-.305 0-.608-.23-.761-.537-.152-.383.076-.843.456-.997l4.566-1.763c.381-.153.838.077.99.46.152.384-.075.844-.456.997zm-4.719 10.808l4.49 2.07c.381.154.609.689.381 1.074a.835.835 0 0 1-.762.459c-.075 0-.228 0-.304-.076l-4.49-2.07c-.381-.152-.609-.689-.381-1.072.153-.385.685-.613 1.066-.385zm-4.947 1.151c-.229.154-.456.307-.761.307-.152 0-.305-.076-.457-.152-.38-.23-.38-.768-.151-1.15.38-.537.685-1.074.989-1.609a8.381 8.381 0 0 0 .228-6.364c-.761-2.07-2.282-3.756-4.338-4.6-3.12-1.457-6.85-.69-9.285 1.764a.825.825 0 0 1-1.142 0 .84.84 0 0 1 0-1.15 9.707 9.707 0 0 1 11.112-2.07c2.358 1.073 4.186 3.066 5.175 5.52.989 2.453.837 5.136-.229 7.589-.303.688-.684 1.377-1.141 1.915zm-1.523-18.246c-.151.23-.456.461-.761.461-.075 0-.229 0-.304-.077-.381-.153-.609-.69-.381-1.073l2.055-4.523c.152-.383.685-.613 1.065-.383.381.153.609.69.381 1.073l-2.055 4.522zm-10.959 0c-.076.077-.151.077-.229.077-.304 0-.608-.23-.761-.536l-1.75-4.6c-.152-.383.076-.843.456-.997.381-.153.838.076.989.46l1.751 4.6c.154.383-.075.843-.456.996zm3.958 16.099h.38c3.806 0 6.851 3.066 6.851 6.9 0 3.832-3.045 6.898-6.851 6.898H11.155c-3.805 0-6.85-3.066-6.85-6.898 0-3.834 3.045-6.9 6.85-6.9h.381c1.142-5.136 5.708-8.969 11.035-8.969 5.328 0 9.895 3.756 11.036 8.969zm-11.036-7.359c-4.794 0-8.904 3.603-9.589 8.355 0 .23-.152.385-.305.537-.152.154-.381.154-.608.154-.305-.078-.609-.078-.914-.078-2.892 0-5.251 2.377-5.251 5.291 0 2.912 2.359 5.289 5.251 5.289h22.832c2.893 0 5.252-2.377 5.252-5.289 0-2.914-2.359-5.291-5.252-5.291-.304 0-.608 0-.913.078-.228 0-.456 0-.608-.154-.152-.152-.305-.307-.305-.537-.684-4.752-4.795-8.355-9.59-8.355z"/></symbol><symbol viewBox="0 0 28.35 28.35" id="comments" xmlns="http://www.w3.org/2000/svg"><path fill-rule="evenodd" clip-rule="evenodd" d="M20.175 18.157h-5l-3 2.999v-2.999h-4a2 2 0 0 1-2-2V9.156a2 2 0 0 1 2-2h12a2 2 0 0 1 2 2v7.001a2 2 0 0 1-2 2zm0-8.001a1 1 0 0 0-1-1h-10a1 1 0 0 0-1 1v5c0 .552.448 1.001 1 1.001h10a1 1 0 0 0 1-1.001v-5z"/></symbol><symbol viewBox="0 0 28.35 28.35" id="commentsV4" xmlns="http://www.w3.org/2000/svg"><path fill-rule="evenodd" clip-rule="evenodd" d="M20.175 18.157h-5l-3 2.999v-2.999h-4a2 2 0 0 1-2-2V9.156a2 2 0 0 1 2-2h12a2 2 0 0 1 2 2v7.001a2 2 0 0 1-2 2zm0-8.001a1 1 0 0 0-1-1h-10a1 1 0 0 0-1 1v5c0 .552.448 1.001 1 1.001h10a1 1 0 0 0 1-1.001v-5z"/></symbol></svg>